<?xml version="1.0" encoding="UTF-8" standalone="no"?>
<svg
   xmlns:dc="http://purl.org/dc/elements/1.1/"
   xmlns:cc="http://creativecommons.org/ns#"
   xmlns:rdf="http://www.w3.org/1999/02/22-rdf-syntax-ns#"
   xmlns:svg="http://www.w3.org/2000/svg"
   xmlns="http://www.w3.org/2000/svg"
   xmlns:sodipodi="http://sodipodi.sourceforge.net/DTD/sodipodi-0.dtd"
   xmlns:inkscape="http://www.inkscape.org/namespaces/inkscape"
   width="1481.2791"
   height="1901.9703"
   viewBox="0 0 1665.616 2137.5153"
   style="opacity:0.3;fill:none"
   version="1.1"
   id="svg993"
   sodipodi:docname="14f.svg"
   inkscape:version="0.92.5 (2060ec1f9f, 2020-04-08)">
  <metadata
     id="metadata997">
    <rdf:RDF>
      <cc:Work
         rdf:about="">
        <dc:format>image/svg+xml</dc:format>
        <dc:type
           rdf:resource="http://purl.org/dc/dcmitype/StillImage" />
        <dc:title></dc:title>
      </cc:Work>
    </rdf:RDF>
  </metadata>
  <sodipodi:namedview
     pagecolor="#ffffff"
     bordercolor="#666666"
     borderopacity="1"
     objecttolerance="10"
     gridtolerance="10"
     guidetolerance="10"
     inkscape:pageopacity="0"
     inkscape:pageshadow="2"
     inkscape:window-width="1920"
     inkscape:window-height="1013"
     id="namedview995"
     showgrid="false"
     fit-margin-top="0"
     fit-margin-left="0"
     fit-margin-right="0"
     fit-margin-bottom="0"
     inkscape:zoom="0.87559464"
     inkscape:cx="740.63953"
     inkscape:cy="880.7391"
     inkscape:window-x="0"
     inkscape:window-y="0"
     inkscape:window-maximized="1"
     inkscape:current-layer="svg993" />
  <path
     style="clip-rule:evenodd;fill:#ffeb35;fill-rule:evenodd"
     inkscape:connector-curvature="0"
     id="path926"
     d="M 1510.276,820.858 284.339,678.622 C 430.848,550.3 622.746,472.527 832.806,472.527 c 279.24,0 526.37,137.425 677.47,348.331 z" />
  <path
     style="clip-rule:evenodd;fill:#ffd335;fill-rule:evenodd"
     inkscape:connector-curvature="0"
     id="path928"
     d="m 1230.076,788.348 c -110.06,-84.58 -247.88,-134.868 -397.45,-134.868 -95.724,0 -186.634,20.597 -268.533,57.599 z" />
  <path
     style="fill:#31aa49"
     inkscape:connector-curvature="0"
     id="path930"
     d="m 878.426,424.018 c 0,-164.889 133.67,-298.558 298.56,-298.558 h 12.78 c 0,164.889 -133.67,298.558 -298.56,298.558 z" />
  <path
     style="fill:#31aa49"
     inkscape:connector-curvature="0"
     id="path932"
     d="M 843.916,424.018 C 843.916,189.552 653.842,-0.52 419.376,-0.52 H 406.6 c 0,234.466 190.072,424.538 424.536,424.538 z" />
  <g
     id="g939"
     mask="url(#mask0)"
     transform="translate(-179.404,-36.52)">
    <path
       style="clip-rule:evenodd;fill:#31aa49;fill-rule:evenodd"
       inkscape:connector-curvature="0"
       id="path937"
       d="m 1012.21,2174.66 c 459.95,0 832.81,-372.86 832.81,-832.81 0,-459.946 -372.86,-832.807 -832.81,-832.807 -459.943,0 -832.803,372.861 -832.803,832.807 0,459.95 372.86,832.81 832.803,832.81 z M 1012.03,1793 c 248.81,0 450.5,-201.92 450.5,-451 0,-249.08 -201.69,-451 -450.5,-451 -248.803,0 -450.499,201.92 -450.499,451 0,249.08 201.696,451 450.499,451 z" />
  </g>
  <g
     id="g946"
     mask="url(#mask1)"
     transform="translate(-179.404,-36.52)">
    <path
       style="clip-rule:evenodd;fill:#b5d467;fill-rule:evenodd"
       inkscape:connector-curvature="0"
       id="path944"
       d="m 1012.5,2050 c 391.29,0 708.5,-316.98 708.5,-708 0,-391.018 -317.21,-708 -708.5,-708 -391.294,0 -708.5,316.982 -708.5,708 0,391.02 317.206,708 708.5,708 z m -0.47,-257 c 248.81,0 450.5,-201.92 450.5,-451 0,-249.08 -201.69,-451 -450.5,-451 -248.803,0 -450.499,201.92 -450.499,451 0,249.08 201.696,451 450.499,451 z" />
  </g>
  <g
     id="g953"
     mask="url(#mask2)"
     transform="translate(-179.404,-36.52)">
    <path
       style="clip-rule:evenodd;fill:#f75566;fill-rule:evenodd"
       inkscape:connector-curvature="0"
       id="path951"
       d="m 1012,1994 c 359.54,0 651,-291.91 651,-652 0,-360.09 -291.46,-652 -651,-652 -359.537,0 -651,291.91 -651,652 0,360.09 291.463,652 651,652 z m 0.03,-201 c 248.81,0 450.5,-201.92 450.5,-451 0,-249.08 -201.69,-451 -450.5,-451 -248.803,0 -450.499,201.92 -450.499,451 0,249.08 201.696,451 450.499,451 z" />
  </g>
  <g
     id="g966"
     mask="url(#mask3)"
     transform="translate(-179.404,-36.52)">
    <path
       style="clip-rule:evenodd;fill:#826730;fill-rule:evenodd"
       inkscape:connector-curvature="0"
       id="path958"
       d="m 1012.21,2174.66 c 459.95,0 832.81,-372.86 832.81,-832.81 0,-459.942 -372.86,-832.803 -832.81,-832.803 -459.945,0 -832.806,372.861 -832.806,832.803 0,459.95 372.861,832.81 832.806,832.81 z M 1012.03,1793 c 248.81,0 450.5,-201.92 450.5,-451 0,-249.08 -201.69,-451 -450.5,-451 -248.803,0 -450.499,201.92 -450.499,451 0,249.08 201.696,451 450.499,451 z" />
    <path
       style="clip-rule:evenodd;fill:#96b143;fill-rule:evenodd"
       inkscape:connector-curvature="0"
       id="path960"
       d="m 1012,2038 c 389.91,0 706,-316.09 706,-706 0,-389.913 -316.09,-706 -706,-706 -389.913,0 -706,316.087 -706,706 0,389.91 316.087,706 706,706 z m 0.03,-245 c 248.81,0 450.5,-201.92 450.5,-451 0,-249.08 -201.69,-451 -450.5,-451 -248.803,0 -450.499,201.92 -450.499,451 0,249.08 201.696,451 450.499,451 z" />
    <path
       style="clip-rule:evenodd;opacity:0.7;fill:#8ca53e;fill-rule:evenodd"
       inkscape:connector-curvature="0"
       id="path962"
       d="m 1012,1992 c 359.54,0 651,-291.46 651,-651 0,-359.537 -291.46,-651 -651,-651 -359.537,0 -651,291.463 -651,651 0,359.54 291.463,651 651,651 z m 0.03,-199 c 248.81,0 450.5,-201.92 450.5,-451 0,-249.08 -201.69,-451 -450.5,-451 -248.803,0 -450.499,201.92 -450.499,451 0,249.08 201.696,451 450.499,451 z" />
    <path
       style="clip-rule:evenodd;fill:#e2e38c;fill-rule:evenodd"
       inkscape:connector-curvature="0"
       id="path964"
       d="m 1013,1861 c 286.64,0 519,-232.36 519,-519 0,-286.64 -232.36,-519 -519,-519 -286.636,0 -519,232.36 -519,519 0,286.64 232.364,519 519,519 z m -0.97,-68 c 248.81,0 450.5,-201.92 450.5,-451 0,-249.08 -201.69,-451 -450.5,-451 -248.803,0 -450.499,201.92 -450.499,451 0,249.08 201.696,451 450.499,451 z" />
  </g>
  <defs
     id="defs991">
    <clipPath
       id="clip0">
      <rect
         width="2024"
         height="1942"
         id="rect988"
         x="0"
         y="0"
         style="fill:#ffffff" />
    </clipPath>
    <mask
       height="586"
       width="2133"
       y="673"
       x="88"
       maskUnits="userSpaceOnUse"
       mask-type="alpha"
       id="mask0">
      <path
         id="path934"
         d="m 93.5,673 2127.3,245 v 205 L 88,1259 Z"
         inkscape:connector-curvature="0"
         style="fill:#ffffff" />
    </mask>
    <mask
       height="586"
       width="2138"
       y="673"
       x="88"
       maskUnits="userSpaceOnUse"
       mask-type="alpha"
       id="mask1">
      <path
         id="path941"
         d="m 88,673 2138,246 -5.2,206 L 88,1259 Z"
         inkscape:connector-curvature="0"
         style="fill:#ffffff" />
    </mask>
    <mask
       height="582"
       width="2133"
       y="677"
       x="88"
       maskUnits="userSpaceOnUse"
       mask-type="alpha"
       id="mask2">
      <path
         id="path948"
         d="M 128.067,677 2220.8,918 v 205 L 88,1259 Z"
         inkscape:connector-curvature="0"
         style="fill:#ffffff" />
    </mask>
    <mask
       height="470"
       width="2324"
       y="987"
       x="-91"
       maskUnits="userSpaceOnUse"
       mask-type="alpha"
       id="mask3">
      <path
         id="path955"
         d="M 2233,987 53,1233 -91,1457 h 2324 z"
         inkscape:connector-curvature="0"
         style="fill:#c4c4c4" />
    </mask>
  </defs>
</svg>
